<svg width="50" height="35" viewBox="0 0 50 35" fill="none" xmlns="http://www.w3.org/2000/svg">
<path fill-rule="evenodd" clip-rule="evenodd" d="M50 17.5C50 18.1629 49.6708 18.7987 49.0848 19.2675C48.4988 19.7362 47.7041 19.9995 46.8753 19.9995H10.6731L24.0904 30.7276C24.3809 30.96 24.6114 31.2359 24.7686 31.5395C24.9258 31.8432 25.0067 32.1686 25.0067 32.4973C25.0067 32.826 24.9258 33.1514 24.7686 33.455C24.6114 33.7587 24.3809 34.0346 24.0904 34.267C23.7999 34.4994 23.455 34.6837 23.0754 34.8095C22.6958 34.9353 22.289 35 21.8781 35C21.4673 35 21.0605 34.9353 20.6809 34.8095C20.3013 34.6837 19.9564 34.4994 19.6659 34.267L0.917983 19.2697C0.626996 19.0375 0.396128 18.7617 0.238605 18.458C0.0810823 18.1543 0 17.8288 0 17.5C0 17.1712 0.0810823 16.8457 0.238605 16.542C0.396128 16.2383 0.626996 15.9625 0.917983 15.7303L19.6659 0.733026C20.2526 0.263678 21.0484 0 21.8781 0C22.7079 0 23.5037 0.263678 24.0904 0.733026C24.6771 1.20237 25.0067 1.83895 25.0067 2.50271C25.0067 3.16647 24.6771 3.80304 24.0904 4.27239L10.6731 15.0005H46.8753C47.7041 15.0005 48.4988 15.2638 49.0848 15.7326C49.6708 16.2013 50 16.8371 50 17.5Z" fill="black"/>
</svg>
