<svg width="40" height="40" viewBox="0 0 40 40" fill="none" xmlns="http://www.w3.org/2000/svg">
<path d="M13.3333 21.6667V7.5C13.3333 6.83696 13.5967 6.20107 14.0656 5.73223C14.5344 5.26339 15.1703 5 15.8333 5C16.4964 5 17.1323 5.26339 17.6011 5.73223C18.07 6.20107 18.3333 6.83696 18.3333 7.5V20M18.3333 19.1667V15.8333C18.3333 15.1703 18.5967 14.5344 19.0656 14.0656C19.5344 13.5967 20.1703 13.3333 20.8333 13.3333C21.4964 13.3333 22.1323 13.5967 22.6011 14.0656C23.07 14.5344 23.3333 15.1703 23.3333 15.8333V20M23.3333 17.5C23.3333 16.837 23.5967 16.2011 24.0656 15.7322C24.5344 15.2634 25.1703 15 25.8333 15C26.4964 15 27.1323 15.2634 27.6011 15.7322C28.0699 16.2011 28.3333 16.837 28.3333 17.5V20" stroke="black" stroke-width="2" stroke-linecap="round" stroke-linejoin="round"/>
<path d="M28.3333 19.1667C28.3333 18.5036 28.5967 17.8677 29.0656 17.3989C29.5344 16.9301 30.1703 16.6667 30.8333 16.6667C31.4964 16.6667 32.1323 16.9301 32.6011 17.3989C33.0699 17.8677 33.3333 18.5036 33.3333 19.1667V26.6667C33.3333 29.3188 32.2798 31.8624 30.4044 33.7377C28.529 35.6131 25.9855 36.6667 23.3333 36.6667H20H20.3467C18.6906 36.6669 17.0603 36.2559 15.6023 35.4705C14.1443 34.685 12.9042 33.5498 11.9933 32.1667L11.6667 31.6667C11.1467 30.8683 9.32167 27.6867 6.19 22.12C5.87075 21.5526 5.78547 20.8829 5.9523 20.2536C6.11914 19.6242 6.52491 19.0848 7.08333 18.75C7.67813 18.3931 8.37512 18.2452 9.0636 18.3297C9.75208 18.4143 10.3926 18.7265 10.8833 19.2167L13.3333 21.6667M8.33333 5L6.66667 3.33333M6.66667 11.6667H5M23.3333 5L25 3.33333M25 10H26.6667" stroke="black" stroke-width="2" stroke-linecap="round" stroke-linejoin="round"/>
</svg>
