<svg width="64" height="64" viewBox="0 0 64 64" fill="none" xmlns="http://www.w3.org/2000/svg">
<path fill-rule="evenodd" clip-rule="evenodd" d="M30.249 2.065C18.612 2.789 12.531 9.379 12 21.296H23.739C23.886 17.168 26.19 14.082 30.48 13.627C34.691 13.18 38.686 14.183 39.896 17.062C41.203 20.172 38.269 23.786 36.874 25.303C34.292 28.116 30.098 30.168 27.924 33.203C25.793 36.177 25.414 40.09 25.25 44.879H35.596C35.741 41.817 35.945 38.884 37.338 36.981C39.604 33.889 42.988 32.44 45.824 29.998C48.533 27.664 51.383 24.851 51.867 20.497C53.32 7.466 42.683 1.289 30.249 2.065Z" fill="black"/>
<path d="M30.515 62C34.1225 62 37.047 59.1198 37.047 55.567C37.047 52.0142 34.1225 49.134 30.515 49.134C26.9075 49.134 23.983 52.0142 23.983 55.567C23.983 59.1198 26.9075 62 30.515 62Z" fill="black"/>
</svg>
