<svg width="50" height="35" viewBox="0 0 50 35" fill="none" xmlns="http://www.w3.org/2000/svg">
<path fill-rule="evenodd" clip-rule="evenodd" d="M3.85389e-07 17.5C3.85389e-07 18.1629 0.329201 18.7987 0.915187 19.2675C1.50117 19.7362 2.29594 19.9995 3.12465 19.9995H39.3269L25.9096 30.7276C25.6191 30.96 25.3886 31.2359 25.2314 31.5395C25.0742 31.8432 24.9933 32.1686 24.9933 32.4973C24.9933 32.826 25.0742 33.1514 25.2314 33.455C25.3886 33.7587 25.6191 34.0346 25.9096 34.267C26.2001 34.4994 26.545 34.6837 26.9246 34.8095C27.3042 34.9353 27.711 35 28.1219 35C28.5327 35 28.9395 34.9353 29.3191 34.8095C29.6987 34.6837 30.0436 34.4994 30.3341 34.267L49.082 19.2697C49.373 19.0375 49.6039 18.7617 49.7614 18.458C49.9189 18.1543 50 17.8288 50 17.5C50 17.1712 49.9189 16.8457 49.7614 16.542C49.6039 16.2383 49.373 15.9625 49.082 15.7303L30.3341 0.733026C29.7474 0.263678 28.9516 0 28.1219 0C27.2921 0 26.4963 0.263678 25.9096 0.733026C25.3229 1.20237 24.9933 1.83895 24.9933 2.50271C24.9933 3.16647 25.3229 3.80304 25.9096 4.27239L39.3269 15.0005H3.12465C2.29594 15.0005 1.50117 15.2638 0.915187 15.7326C0.329201 16.2013 3.85389e-07 16.8371 3.85389e-07 17.5Z" fill="black"/>
</svg>
